<svg xmlns="http://www.w3.org/2000/svg" width="24" height="24" viewBox="0 0 24 24" fill="none">
<path d="M12.0041 13.2816L7.93104 9.20854C7.79259 9.07007 7.61855 8.99924 7.40894 8.99604C7.19934 8.99282 7.0221 9.06365 6.87724 9.20854C6.73235 9.3534 6.65991 9.52904 6.65991 9.73544C6.65991 9.94184 6.73235 10.1175 6.87724 10.2623L11.3715 14.7566C11.465 14.8502 11.5638 14.9162 11.6676 14.9546C11.7714 14.9931 11.8836 15.0123 12.0041 15.0123C12.1247 15.0123 12.2368 14.9931 12.3407 14.9546C12.4445 14.9162 12.5432 14.8502 12.6368 14.7566L17.131 10.2623C17.2695 10.1239 17.3403 9.94985 17.3435 9.74024C17.3468 9.53064 17.2759 9.3534 17.131 9.20854C16.9862 9.06365 16.8105 8.99121 16.6041 8.99121C16.3977 8.99121 16.2221 9.06365 16.0772 9.20854L12.0041 13.2816Z" fill="white"/>
</svg>