<?xml version="1.0" standalone="no"?>
<!DOCTYPE svg PUBLIC "-//W3C//DTD SVG 20010904//EN"
 "http://www.w3.org/TR/2001/REC-SVG-20010904/DTD/svg10.dtd">
<svg version="1.0" xmlns="http://www.w3.org/2000/svg"
 width="240.000000pt" height="240.000000pt" viewBox="0 0 240.000000 240.000000"
 preserveAspectRatio="xMidYMid meet">
<metadata>
Created by potrace 1.14, written by Peter Selinger 2001-2017
</metadata>
<g transform="translate(0.000000,240.000000) scale(0.100000,-0.100000)"
fill="#000000" stroke="none">
<path d="M621 2381 c-27 -49 -56 -140 -96 -291 -54 -210 -102 -369 -121 -397
-8 -12 -14 -34 -14 -49 0 -37 -90 -374 -139 -519 -23 -66 -49 -126 -58 -133
-11 -8 -17 -23 -15 -37 2 -14 0 -25 -5 -25 -7 0 -9 -80 -5 -177 1 -17 8 -38
16 -46 10 -9 11 -18 5 -24 -24 -24 36 -179 107 -277 34 -49 88 -96 108 -96 6
0 33 27 59 60 46 58 80 76 90 48 7 -21 -15 -58 -33 -58 -10 0 -23 -7 -30 -15
-7 -8 -16 -13 -20 -10 -8 5 -6 -25 5 -74 9 -42 71 -76 99 -55 24 17 36 10 36
-21 0 -15 12 -33 33 -49 41 -31 50 -32 91 -6 29 17 83 18 74 1 -38 -73 -35
-86 28 -108 54 -20 179 -29 188 -14 5 7 39 11 92 11 l84 0 -1 73 0 72 -59 50
c-70 58 -100 107 -84 133 10 14 31 17 148 20 l136 3 12 -25 c6 -14 15 -23 19
-20 5 3 9 -3 9 -12 0 -14 -3 -15 -12 -6 -18 18 -28 15 -28 -9 0 -11 -4 -18 -9
-15 -4 3 -6 -5 -4 -18 4 -20 -5 -32 -45 -63 -42 -32 -50 -44 -54 -79 -3 -22
-3 -54 0 -72 4 -29 8 -32 37 -32 19 0 45 -4 59 -10 14 -5 26 -6 26 -1 0 5 53
11 118 13 86 3 126 8 149 21 l33 17 -17 34 c-29 62 10 91 57 41 29 -30 49 -31
83 -5 22 18 25 26 20 53 -4 18 -12 37 -19 42 -17 14 -27 52 -15 60 7 3 8 0 5
-9 -3 -9 -1 -16 5 -16 6 0 11 7 11 15 0 24 12 18 50 -25 l35 -41 35 18 c48 25
50 52 6 116 -41 60 -44 72 -16 87 22 12 38 0 80 -63 39 -58 54 -57 117 4 36
36 66 79 90 128 36 76 64 166 55 176 -3 3 -103 5 -223 5 l-217 0 -15 -39 c-42
-104 -165 -132 -242 -55 -62 61 -59 154 5 215 64 61 140 61 202 2 15 -15 32
-41 38 -58 l11 -32 162 -5 c89 -3 191 -2 227 1 l65 6 3 71 c2 56 -5 102 -37
225 -22 85 -45 168 -52 184 -7 17 -14 40 -15 53 -2 13 -9 31 -16 39 -7 8 -20
52 -29 97 -28 138 -292 1005 -308 1011 -21 8 -58 -32 -63 -68 -7 -47 -136
-484 -161 -542 -12 -27 -28 -55 -37 -62 -13 -11 -13 -12 3 -13 16 0 16 -2 1
-25 -9 -14 -13 -25 -8 -25 4 0 4 -4 -1 -9 -6 -6 -62 -1 -145 13 -125 20 -244
26 -280 13 -38 -14 -100 -17 -100 -5 0 6 -6 4 -13 -6 -9 -12 -28 -19 -52 -20
-36 -1 -40 2 -54 38 -11 30 -12 41 -3 44 9 3 8 7 -2 17 -17 18 -90 239 -146
445 -23 85 -49 167 -56 183 -17 31 -39 35 -53 8z m1049 -751 c0 -5 -5 -10 -11
-10 -5 0 -7 5 -4 10 3 6 8 10 11 10 2 0 4 -4 4 -10z m-340 -730 c0 -5 -4 -10
-10 -10 -5 0 -10 5 -10 10 0 6 5 10 10 10 6 0 10 -4 10 -10z m-480 -88 c19
-10 43 -34 52 -53 19 -37 24 -99 8 -99 -5 0 -10 -7 -10 -15 0 -16 -8 -29 -48
-72 -21 -22 -30 -25 -73 -21 -62 6 -98 31 -124 86 l-20 41 -118 1 c-90 0 -118
3 -115 13 3 8 39 13 119 15 l115 3 13 35 c21 57 58 84 116 84 29 0 65 -8 85
-18z m-581 -111 c8 -5 9 -11 3 -15 -14 -8 -43 4 -36 15 7 11 15 11 33 0z m111
-6 c-7 -8 -16 -12 -21 -9 -13 8 -1 24 18 24 13 0 13 -3 3 -15z"/>
</g>
</svg>
